<svg width="148" height="29" viewBox="0 0 148 29" fill="none" xmlns="http://www.w3.org/2000/svg">
<path d="M4.57579 28.3581C3.62084 28.3581 2.93116 28.2255 2.50674 27.9602C2.08232 27.6684 1.81705 27.2838 1.71095 26.8063C1.63137 26.3288 1.59158 25.8381 1.59158 25.3341V3.56926C1.59158 3.03874 1.63137 2.548 1.71095 2.09705C1.81705 1.6461 2.08232 1.27473 2.50674 0.982946C2.93116 0.691156 3.63411 0.54526 4.61558 0.54526C5.62358 0.54526 6.32653 0.691156 6.72442 0.982946C7.14884 1.27473 7.40084 1.6461 7.48042 2.09705C7.58653 2.548 7.63958 3.052 7.63958 3.60905V25.3739C7.63958 25.8779 7.58653 26.3686 7.48042 26.8461C7.37432 27.2971 7.10905 27.6684 6.68463 27.9602C6.28674 28.2255 5.58379 28.3581 4.57579 28.3581ZM13.8237 28.3581C12.8953 28.3581 12.2189 28.2122 11.7945 27.9204C11.37 27.6286 11.1048 27.2573 10.9987 26.8063C10.8926 26.3288 10.8395 25.8248 10.8395 25.2943V3.44989C10.8395 2.94589 10.8926 2.48168 10.9987 2.05726C11.1048 1.63284 11.37 1.288 11.7945 1.02273C12.2454 0.730946 12.9616 0.585052 13.9431 0.585052C14.898 0.585052 15.5612 0.70442 15.9326 0.943157C16.3039 1.15537 16.6355 1.46042 16.9273 1.85832L28.5458 17.8139V3.44989C28.5458 2.94589 28.5989 2.48168 28.705 2.05726C28.8376 1.63284 29.1162 1.288 29.5406 1.02273C29.965 0.730946 30.6547 0.585052 31.6096 0.585052C32.5911 0.585052 33.2808 0.730946 33.6787 1.02273C34.1031 1.31452 34.3551 1.69916 34.4347 2.17663C34.5408 2.62758 34.5938 3.10505 34.5938 3.60905V25.3341C34.5938 25.8381 34.5408 26.3288 34.4347 26.8063C34.3286 27.2573 34.0633 27.6286 33.6389 27.9204C33.2145 28.2122 32.5115 28.3581 31.53 28.3581C30.7873 28.3581 30.2037 28.2918 29.7793 28.1592C29.3814 28.0265 29.0366 27.7745 28.7448 27.4032L16.8875 11.3282V25.3341C16.8875 25.8381 16.8345 26.3288 16.7284 26.8063C16.6223 27.2573 16.357 27.6286 15.9326 27.9204C15.5082 28.2122 14.8052 28.3581 13.8237 28.3581ZM41.0245 28.3581C40.0961 28.3581 39.4197 28.2122 38.9952 27.9204C38.5973 27.6286 38.3321 27.2573 38.1994 26.8063C38.0668 26.3288 38.0005 25.8248 38.0005 25.2943V3.52947C38.0005 3.02547 38.0536 2.548 38.1597 2.09705C38.2658 1.61958 38.531 1.23495 38.9554 0.943157C39.3799 0.651367 40.0828 0.518734 41.0643 0.54526H48.2264C50.1363 0.54526 51.9136 0.890103 53.5582 1.57979C55.2028 2.26947 56.6485 3.23768 57.8952 4.48442C59.142 5.73116 60.1102 7.1901 60.7999 8.86126C61.4896 10.5324 61.8344 12.3495 61.8344 14.3124C61.8344 16.3019 61.4896 18.1587 60.7999 19.8829C60.1102 21.5806 59.142 23.0661 57.8952 24.3394C56.6485 25.5861 55.1896 26.5676 53.5184 27.2838C51.8738 28 50.07 28.3581 48.107 28.3581H41.0245ZM44.0485 22.2703H48.2264C49.6588 22.2703 50.9453 21.9387 52.086 21.2756C53.2266 20.5859 54.1285 19.6575 54.7917 18.4903C55.4548 17.3232 55.7864 15.9836 55.7864 14.4716C55.7864 12.9596 55.4548 11.6067 54.7917 10.4131C54.1285 9.21937 53.2266 8.29095 52.086 7.62779C50.9453 6.9381 49.6456 6.59326 48.1866 6.59326H44.0485V22.2703ZM76.5562 28.7162C74.6198 28.7162 72.9088 28.3448 71.4233 27.6021C69.9644 26.8328 68.7177 25.8248 67.6831 24.5781C66.6751 23.3048 65.9191 21.8857 65.4151 20.3206C64.9111 18.7291 64.6591 17.1109 64.6591 15.4663V3.56926C64.6591 3.03874 64.6989 2.548 64.7785 2.09705C64.8846 1.61958 65.1499 1.23495 65.5743 0.943157C65.9987 0.651367 66.7017 0.505471 67.6831 0.505471C68.6911 0.505471 69.4073 0.651367 69.8318 0.943157C70.2562 1.23495 70.5082 1.61958 70.5878 2.09705C70.6939 2.548 70.7469 3.052 70.7469 3.60905V15.4663C70.7469 16.6335 70.9326 17.7608 71.304 18.8484C71.7019 19.936 72.3385 20.8379 73.2139 21.5541C74.0892 22.2703 75.2431 22.6284 76.6756 22.6284C77.8958 22.6284 78.9436 22.3366 79.8189 21.7531C80.6943 21.1429 81.3707 20.3074 81.8482 19.2463C82.3257 18.1587 82.5644 16.8855 82.5644 15.4265V3.33053C82.5644 2.85305 82.6175 2.4021 82.7236 1.97768C82.8297 1.55326 83.0949 1.20842 83.5193 0.943157C83.9438 0.651367 84.6467 0.505471 85.6282 0.505471C86.6097 0.505471 87.2993 0.66463 87.6972 0.982946C88.1217 1.27473 88.3737 1.6461 88.4532 2.09705C88.5593 2.548 88.6124 3.052 88.6124 3.60905V15.5459C88.6124 17.2171 88.3471 18.8352 87.8166 20.4002C87.3126 21.9653 86.5433 23.3712 85.5088 24.6179C84.5008 25.8646 83.2408 26.8594 81.7288 27.6021C80.2433 28.3448 78.5191 28.7162 76.5562 28.7162ZM95.5547 28.3581C94.5998 28.3581 93.9101 28.2255 93.4857 27.9602C93.0613 27.6684 92.796 27.2838 92.6899 26.8063C92.5838 26.3288 92.5307 25.8381 92.5307 25.3341V3.56926C92.5307 3.03874 92.5705 2.548 92.6501 2.09705C92.7562 1.6461 93.0215 1.27473 93.4459 0.982946C93.8703 0.691156 94.5733 0.54526 95.5547 0.54526C96.5627 0.54526 97.2657 0.691156 97.6636 0.982946C98.088 1.27473 98.34 1.6461 98.4196 2.09705C98.5257 2.548 98.5787 3.03874 98.5787 3.56926V23.1059H109.481C109.932 23.1059 110.356 23.1457 110.754 23.2253C111.152 23.3048 111.471 23.5303 111.709 23.9017C111.975 24.2731 112.107 24.8832 112.107 25.732C112.107 26.5543 111.975 27.1644 111.709 27.5623C111.444 27.9337 111.112 28.1592 110.715 28.2387C110.343 28.3183 109.932 28.3581 109.481 28.3581H95.5547ZM122.231 28.6764C121.249 28.6764 120.334 28.5305 119.485 28.2387C118.636 27.9735 117.894 27.6552 117.257 27.2838C116.647 26.9124 116.156 26.5676 115.785 26.2493C115.414 25.9044 115.175 25.6789 115.069 25.5728C114.724 25.228 114.419 24.8964 114.154 24.5781C113.915 24.2333 113.795 23.8486 113.795 23.4242C113.795 23.0794 113.888 22.7213 114.074 22.3499C114.286 21.952 114.578 21.5541 114.949 21.1562C115.347 20.7583 115.719 20.4665 116.063 20.2808C116.435 20.0686 116.793 19.9625 117.138 19.9625C117.615 19.9625 118.026 20.1084 118.371 20.4002C118.743 20.692 119.127 21.0368 119.525 21.4347C119.684 21.5408 119.896 21.6867 120.162 21.8724C120.427 22.0581 120.745 22.2305 121.117 22.3897C121.488 22.5223 121.926 22.5886 122.43 22.5886C123.013 22.5886 123.531 22.4958 123.982 22.3101C124.432 22.0979 124.804 21.8061 125.096 21.4347C125.414 21.0368 125.653 20.5859 125.812 20.0819C125.971 19.5514 126.051 18.9811 126.051 18.3709V3.88758C126.051 3.33052 126.104 2.8 126.21 2.296C126.316 1.76547 126.581 1.34105 127.006 1.02273C127.456 0.704419 128.173 0.54526 129.154 0.54526C130.109 0.54526 130.786 0.691156 131.183 0.982946C131.581 1.27473 131.833 1.65937 131.939 2.13684C132.046 2.61431 132.099 3.10505 132.099 3.60905V18.6495C132.099 20.0554 131.86 21.3684 131.382 22.5886C130.905 23.8088 130.215 24.8699 129.313 25.7718C128.438 26.6737 127.39 27.3899 126.17 27.9204C124.976 28.4244 123.663 28.6764 122.231 28.6764Z" fill="white"/>
<circle cx="141.263" cy="21.7368" r="6.26316" fill="#FF4D4D"/>
</svg>
